<svg width="64" height="64" viewBox="0 0 64 64" fill="none" xmlns="http://www.w3.org/2000/svg">
<rect x="0.5" y="0.5" width="63" height="63" rx="15.5" fill="#0F172A"/>
<g clip-path="url(#clip0_526_114)">
<path d="M42 21H22C21.4477 21 21 21.4477 21 22V42C21 42.5523 21.4477 43 22 43H42C42.5523 43 43 42.5523 43 42V22C43 21.4477 42.5523 21 42 21Z" stroke="#94A3B8" stroke-width="2" stroke-linecap="round" stroke-linejoin="round"/>
<path d="M28 30C29.1046 30 30 29.1046 30 28C30 26.8954 29.1046 26 28 26C26.8954 26 26 26.8954 26 28C26 29.1046 26.8954 30 28 30Z" stroke="#94A3B8" stroke-width="2" stroke-linecap="round" stroke-linejoin="round"/>
<path d="M23.0862 43.0001L36.7925 29.2926C36.8854 29.1996 36.9957 29.1258 37.1171 29.0755C37.2385 29.0252 37.3686 28.9993 37.5 28.9993C37.6314 28.9993 37.7615 29.0252 37.8829 29.0755C38.0043 29.1258 38.1146 29.1996 38.2075 29.2926L43 34.0863" stroke="#94A3B8" stroke-width="2" stroke-linecap="round" stroke-linejoin="round"/>
</g>
<rect x="0.5" y="0.5" width="63" height="63" rx="15.5" stroke="#1E293B"/>
<defs>
<clipPath id="clip0_526_114">
<rect width="32" height="32" fill="white" transform="translate(16 16)"/>
</clipPath>
</defs>
</svg>
