<svg width="64" height="64" viewBox="0 0 64 64" fill="none" xmlns="http://www.w3.org/2000/svg">
<rect x="0.5" y="0.5" width="63" height="63" rx="15.5" fill="#0F172A"/>
<g clip-path="url(#clip0_526_151)">
<path d="M45.75 32V39.5" stroke="#E2E8F0" stroke-width="2" stroke-linecap="round" stroke-linejoin="round"/>
<path d="M42 35.75H49.5" stroke="#E2E8F0" stroke-width="2" stroke-linecap="round" stroke-linejoin="round"/>
<path d="M24.5 18.25V25.75" stroke="#E2E8F0" stroke-width="2" stroke-linecap="round" stroke-linejoin="round"/>
<path d="M20.75 22H28.25" stroke="#E2E8F0" stroke-width="2" stroke-linecap="round" stroke-linejoin="round"/>
<path d="M38.25 40.75V45.75" stroke="#E2E8F0" stroke-width="2" stroke-linecap="round" stroke-linejoin="round"/>
<path d="M35.75 43.25H40.75" stroke="#E2E8F0" stroke-width="2" stroke-linecap="round" stroke-linejoin="round"/>
<path d="M34.5 24.5L39.5 29.5" stroke="#94A3B8" stroke-width="2" stroke-linecap="round" stroke-linejoin="round"/>
<path d="M40.3835 18.6159L18.6157 40.3837C18.1275 40.8719 18.1275 41.6633 18.6157 42.1515L21.8474 45.3832C22.3355 45.8713 23.127 45.8713 23.6152 45.3832L45.383 23.6153C45.8712 23.1272 45.8712 22.3357 45.383 21.8476L42.1513 18.6159C41.6631 18.1277 40.8717 18.1277 40.3835 18.6159Z" stroke="#94A3B8" stroke-width="2" stroke-linecap="round" stroke-linejoin="round"/>
</g>
<rect x="0.5" y="0.5" width="63" height="63" rx="15.5" stroke="#1E293B"/>
<defs>
<clipPath id="clip0_526_151">
<rect width="40" height="40" fill="white" transform="translate(12 12)"/>
</clipPath>
</defs>
</svg>
