<svg width="64" height="64" viewBox="0 0 64 64" fill="none" xmlns="http://www.w3.org/2000/svg">
<rect x="0.5" y="0.5" width="63" height="63" rx="15.5" fill="#0F172A"/>
<g clip-path="url(#clip0_526_125)">
<path d="M38.5 41C40.433 41 42 39.433 42 37.5C42 35.567 40.433 34 38.5 34C36.567 34 35 35.567 35 37.5C35 39.433 36.567 41 38.5 41Z" stroke="#94A3B8" stroke-width="2" stroke-linecap="round" stroke-linejoin="round"/>
<path d="M22.5 45C24.433 45 26 43.433 26 41.5C26 39.567 24.433 38 22.5 38C20.567 38 19 39.567 19 41.5C19 43.433 20.567 45 22.5 45Z" stroke="#94A3B8" stroke-width="2" stroke-linecap="round" stroke-linejoin="round"/>
<path d="M26 41.5V24L42 20V37.5" stroke="#94A3B8" stroke-width="2" stroke-linecap="round" stroke-linejoin="round"/>
</g>
<rect x="0.5" y="0.5" width="63" height="63" rx="15.5" stroke="#1E293B"/>
<defs>
<clipPath id="clip0_526_125">
<rect width="32" height="32" fill="white" transform="translate(16 16)"/>
</clipPath>
</defs>
</svg>
