<svg width="32" height="32" viewBox="0 0 32 32" fill="none" xmlns="http://www.w3.org/2000/svg">
<g clip-path="url(#clip0_504_247)">
<path d="M8.9413 15.6487C9.02009 15.866 9.02009 16.104 8.9413 16.3212L5.0663 27.66C4.99703 27.8514 4.98782 28.0594 5.03991 28.2562C5.092 28.453 5.2029 28.6292 5.35781 28.7612C5.51271 28.8933 5.70423 28.975 5.90678 28.9953C6.10932 29.0156 6.31325 28.9736 6.4913 28.875L27.4913 16.8637C27.6476 16.7773 27.7779 16.6505 27.8686 16.4966C27.9593 16.3427 28.0072 16.1674 28.0072 15.9887C28.0072 15.8101 27.9593 15.6347 27.8686 15.4809C27.7779 15.327 27.6476 15.2002 27.4913 15.1137L6.4913 3.13248C6.31369 3.03314 6.10999 2.99036 5.90742 3.00984C5.70485 3.02933 5.51304 3.11016 5.35762 3.24153C5.2022 3.37291 5.09056 3.54858 5.03761 3.74508C4.98466 3.94158 4.99293 4.14955 5.0613 4.34123L8.9413 15.6487Z" stroke="#F8FAFC" stroke-width="2" stroke-linecap="round" stroke-linejoin="round"/>
<path d="M17 16H9" stroke="#F8FAFC" stroke-width="2" stroke-linecap="round" stroke-linejoin="round"/>
</g>
<defs>
<clipPath id="clip0_504_247">
<rect width="32" height="32" fill="white"/>
</clipPath>
</defs>
</svg>
